<mxfile host="Electron" agent="Mozilla/5.0 (Windows NT 10.0; Win64; x64) AppleWebKit/537.36 (KHTML, like Gecko) draw.io/24.7.5 Chrome/126.0.6478.183 Electron/31.3.0 Safari/537.36" version="24.7.5" pages="3">
  <diagram name="Use Case Diagram" id="mKgLvjV6LLKM9E4_mvI9">
    <mxGraphModel dx="995" dy="638" grid="1" gridSize="10" guides="1" tooltips="1" connect="1" arrows="1" fold="1" page="1" pageScale="1" pageWidth="1654" pageHeight="1169" math="0" shadow="0">
      <root>
        <mxCell id="0" />
        <mxCell id="1" parent="0" />
        <mxCell id="GROcgmvq_gN442v0T93c-1" value="system" style="shape=umlFrame;whiteSpace=wrap;html=1;pointerEvents=0;" parent="1" vertex="1">
          <mxGeometry x="180" y="80" width="710" height="540" as="geometry" />
        </mxCell>
        <mxCell id="GROcgmvq_gN442v0T93c-15" style="edgeStyle=orthogonalEdgeStyle;rounded=0;orthogonalLoop=1;jettySize=auto;html=1;exitX=0;exitY=1;exitDx=0;exitDy=0;exitPerimeter=0;entryX=1;entryY=0.5;entryDx=0;entryDy=0;" parent="1" source="GROcgmvq_gN442v0T93c-2" target="GROcgmvq_gN442v0T93c-6" edge="1">
          <mxGeometry relative="1" as="geometry" />
        </mxCell>
        <mxCell id="GROcgmvq_gN442v0T93c-19" style="edgeStyle=orthogonalEdgeStyle;rounded=0;orthogonalLoop=1;jettySize=auto;html=1;exitX=0;exitY=0.3333333333333333;exitDx=0;exitDy=0;exitPerimeter=0;entryX=1;entryY=0.5;entryDx=0;entryDy=0;" parent="1" source="GROcgmvq_gN442v0T93c-2" target="GROcgmvq_gN442v0T93c-5" edge="1">
          <mxGeometry relative="1" as="geometry" />
        </mxCell>
        <mxCell id="e118B7L7JyvoJsIXEN8V-2" style="edgeStyle=orthogonalEdgeStyle;rounded=0;orthogonalLoop=1;jettySize=auto;html=1;exitX=1;exitY=1;exitDx=0;exitDy=0;exitPerimeter=0;entryX=1;entryY=0.5;entryDx=0;entryDy=0;" parent="1" source="GROcgmvq_gN442v0T93c-2" target="e118B7L7JyvoJsIXEN8V-1" edge="1">
          <mxGeometry relative="1" as="geometry" />
        </mxCell>
        <mxCell id="GROcgmvq_gN442v0T93c-2" value="User" style="shape=umlActor;verticalLabelPosition=bottom;verticalAlign=top;html=1;" parent="1" vertex="1">
          <mxGeometry x="980" y="290" width="30" height="60" as="geometry" />
        </mxCell>
        <mxCell id="GROcgmvq_gN442v0T93c-21" style="edgeStyle=orthogonalEdgeStyle;rounded=0;orthogonalLoop=1;jettySize=auto;html=1;exitX=0.5;exitY=0;exitDx=0;exitDy=0;exitPerimeter=0;entryX=0.5;entryY=1;entryDx=0;entryDy=0;" parent="1" source="GROcgmvq_gN442v0T93c-3" target="GROcgmvq_gN442v0T93c-9" edge="1">
          <mxGeometry relative="1" as="geometry" />
        </mxCell>
        <mxCell id="GROcgmvq_gN442v0T93c-3" value="&lt;div&gt;&lt;span style=&quot;background-color: initial;&quot;&gt;Local FIles&lt;/span&gt;&lt;br&gt;&lt;/div&gt;" style="shape=umlActor;verticalLabelPosition=bottom;verticalAlign=top;html=1;" parent="1" vertex="1">
          <mxGeometry x="330" y="650" width="30" height="60" as="geometry" />
        </mxCell>
        <mxCell id="GROcgmvq_gN442v0T93c-5" value="Check and Modify the To-Do&lt;span style=&quot;background-color: initial;&quot;&gt;&amp;nbsp;List&lt;/span&gt;" style="ellipse;whiteSpace=wrap;html=1;" parent="1" vertex="1">
          <mxGeometry x="440" y="110" width="190" height="100" as="geometry" />
        </mxCell>
        <mxCell id="GROcgmvq_gN442v0T93c-6" value="Interact with the To-Do List by entering the required keys" style="ellipse;whiteSpace=wrap;html=1;" parent="1" vertex="1">
          <mxGeometry x="680" y="300" width="150" height="100" as="geometry" />
        </mxCell>
        <mxCell id="GROcgmvq_gN442v0T93c-9" value="Read from the local txt file to initialise the To-Do List" style="ellipse;whiteSpace=wrap;html=1;" parent="1" vertex="1">
          <mxGeometry x="260" y="440" width="190" height="100" as="geometry" />
        </mxCell>
        <mxCell id="GROcgmvq_gN442v0T93c-11" value="&amp;lt;&amp;lt;include&amp;gt;&amp;gt;" style="html=1;verticalAlign=bottom;labelBackgroundColor=none;endArrow=open;endFill=0;dashed=1;rounded=0;exitX=0;exitY=1;exitDx=0;exitDy=0;entryX=0.5;entryY=0;entryDx=0;entryDy=0;" parent="1" source="GROcgmvq_gN442v0T93c-5" target="GROcgmvq_gN442v0T93c-9" edge="1">
          <mxGeometry width="160" relative="1" as="geometry">
            <mxPoint x="430" y="320" as="sourcePoint" />
            <mxPoint x="590" y="320" as="targetPoint" />
          </mxGeometry>
        </mxCell>
        <mxCell id="GROcgmvq_gN442v0T93c-13" value="&amp;lt;&amp;lt;include&amp;gt;&amp;gt;" style="html=1;verticalAlign=bottom;labelBackgroundColor=none;endArrow=open;endFill=0;dashed=1;rounded=0;exitX=1;exitY=1;exitDx=0;exitDy=0;entryX=0;entryY=0;entryDx=0;entryDy=0;" parent="1" source="GROcgmvq_gN442v0T93c-5" target="GROcgmvq_gN442v0T93c-6" edge="1">
          <mxGeometry width="160" relative="1" as="geometry">
            <mxPoint x="640" y="370" as="sourcePoint" />
            <mxPoint x="800" y="370" as="targetPoint" />
          </mxGeometry>
        </mxCell>
        <mxCell id="e118B7L7JyvoJsIXEN8V-1" value="User can choose to undo or redo the last operation" style="ellipse;whiteSpace=wrap;html=1;" parent="1" vertex="1">
          <mxGeometry x="550" y="445" width="160" height="95" as="geometry" />
        </mxCell>
        <mxCell id="jGRYKeH8aTdGG2URI3lW-1" value="&amp;lt;&amp;lt;extend&amp;gt;&amp;gt;" style="html=1;verticalAlign=bottom;labelBackgroundColor=none;endArrow=open;endFill=0;dashed=1;rounded=0;" edge="1" parent="1" source="e118B7L7JyvoJsIXEN8V-1" target="GROcgmvq_gN442v0T93c-5">
          <mxGeometry width="160" relative="1" as="geometry">
            <mxPoint x="480" y="370" as="sourcePoint" />
            <mxPoint x="640" y="370" as="targetPoint" />
          </mxGeometry>
        </mxCell>
      </root>
    </mxGraphModel>
  </diagram>
  <diagram id="NdG9wqjl0NFJzS-UcZx2" name="Activity Diagram">
    <mxGraphModel dx="1194" dy="765" grid="1" gridSize="10" guides="1" tooltips="1" connect="1" arrows="1" fold="1" page="1" pageScale="1" pageWidth="1654" pageHeight="1169" math="0" shadow="0">
      <root>
        <mxCell id="0" />
        <mxCell id="1" parent="0" />
        <mxCell id="q85WHNdkSG2JO1IWw7Qk-5" value="Read from the local txt file &quot;specification.txt&quot;" style="rounded=1;whiteSpace=wrap;html=1;arcSize=40;fontColor=#000000;fillColor=#ffffc0;strokeColor=#ff0000;" parent="1" vertex="1">
          <mxGeometry x="429" y="214" width="135" height="50" as="geometry" />
        </mxCell>
        <mxCell id="q85WHNdkSG2JO1IWw7Qk-6" value="" style="edgeStyle=orthogonalEdgeStyle;html=1;verticalAlign=bottom;endArrow=open;endSize=8;strokeColor=#ff0000;rounded=0;entryX=0.5;entryY=0;entryDx=0;entryDy=0;" parent="1" source="q85WHNdkSG2JO1IWw7Qk-5" target="q85WHNdkSG2JO1IWw7Qk-9" edge="1">
          <mxGeometry relative="1" as="geometry">
            <mxPoint x="496" y="324" as="targetPoint" />
          </mxGeometry>
        </mxCell>
        <mxCell id="q85WHNdkSG2JO1IWw7Qk-9" value="" style="rhombus;whiteSpace=wrap;html=1;fontColor=#000000;fillColor=#ffffc0;strokeColor=#ff0000;" parent="1" vertex="1">
          <mxGeometry x="456" y="323" width="80" height="40" as="geometry" />
        </mxCell>
        <mxCell id="q85WHNdkSG2JO1IWw7Qk-10" value="txt doesn&#39;t exist" style="edgeStyle=orthogonalEdgeStyle;html=1;align=left;verticalAlign=bottom;endArrow=open;endSize=8;strokeColor=#ff0000;rounded=0;entryX=0;entryY=0.5;entryDx=0;entryDy=0;" parent="1" source="q85WHNdkSG2JO1IWw7Qk-9" target="q85WHNdkSG2JO1IWw7Qk-20" edge="1">
          <mxGeometry x="-1" relative="1" as="geometry">
            <mxPoint x="641" y="354" as="targetPoint" />
          </mxGeometry>
        </mxCell>
        <mxCell id="q85WHNdkSG2JO1IWw7Qk-11" value="txt do exist" style="edgeStyle=orthogonalEdgeStyle;html=1;align=left;verticalAlign=top;endArrow=open;endSize=8;strokeColor=#ff0000;rounded=0;entryX=0.5;entryY=0;entryDx=0;entryDy=0;" parent="1" source="q85WHNdkSG2JO1IWw7Qk-9" target="q85WHNdkSG2JO1IWw7Qk-13" edge="1">
          <mxGeometry x="-1" relative="1" as="geometry">
            <mxPoint x="501" y="434" as="targetPoint" />
          </mxGeometry>
        </mxCell>
        <mxCell id="q85WHNdkSG2JO1IWw7Qk-13" value="Initialise the application with the existing TODOs" style="rounded=1;whiteSpace=wrap;html=1;arcSize=40;fontColor=#000000;fillColor=#ffffc0;strokeColor=#ff0000;" parent="1" vertex="1">
          <mxGeometry x="433" y="406" width="125" height="48" as="geometry" />
        </mxCell>
        <mxCell id="q85WHNdkSG2JO1IWw7Qk-14" value="" style="edgeStyle=orthogonalEdgeStyle;html=1;verticalAlign=bottom;endArrow=open;endSize=8;strokeColor=#ff0000;rounded=0;entryX=0;entryY=0.5;entryDx=0;entryDy=0;" parent="1" source="q85WHNdkSG2JO1IWw7Qk-13" target="q85WHNdkSG2JO1IWw7Qk-17" edge="1">
          <mxGeometry relative="1" as="geometry">
            <mxPoint x="504" y="534" as="targetPoint" />
          </mxGeometry>
        </mxCell>
        <mxCell id="q85WHNdkSG2JO1IWw7Qk-15" value="Display the TODOs with their status, and all the available options for user to interact" style="rounded=1;whiteSpace=wrap;html=1;arcSize=40;fontColor=#000000;fillColor=#ffffc0;strokeColor=#ff0000;" parent="1" vertex="1">
          <mxGeometry x="501" y="674" width="150" height="70" as="geometry" />
        </mxCell>
        <mxCell id="q85WHNdkSG2JO1IWw7Qk-16" value="" style="edgeStyle=orthogonalEdgeStyle;html=1;verticalAlign=bottom;endArrow=open;endSize=8;strokeColor=#ff0000;rounded=0;entryX=0.5;entryY=0;entryDx=0;entryDy=0;" parent="1" source="q85WHNdkSG2JO1IWw7Qk-15" target="RsbU5nmADzKlUmwW7Z2p-1" edge="1">
          <mxGeometry relative="1" as="geometry">
            <mxPoint x="561" y="854" as="targetPoint" />
          </mxGeometry>
        </mxCell>
        <mxCell id="q85WHNdkSG2JO1IWw7Qk-17" value="" style="rhombus;whiteSpace=wrap;html=1;fontColor=#000000;fillColor=#ffffc0;strokeColor=#ff0000;" parent="1" vertex="1">
          <mxGeometry x="536" y="594" width="80" height="40" as="geometry" />
        </mxCell>
        <mxCell id="q85WHNdkSG2JO1IWw7Qk-19" value="" style="edgeStyle=orthogonalEdgeStyle;html=1;align=left;verticalAlign=top;endArrow=open;endSize=8;strokeColor=#ff0000;rounded=0;entryX=0.5;entryY=0;entryDx=0;entryDy=0;" parent="1" source="q85WHNdkSG2JO1IWw7Qk-17" target="q85WHNdkSG2JO1IWw7Qk-15" edge="1">
          <mxGeometry x="-1" relative="1" as="geometry">
            <mxPoint x="561" y="734" as="targetPoint" />
          </mxGeometry>
        </mxCell>
        <mxCell id="q85WHNdkSG2JO1IWw7Qk-20" value="Create a default &quot;specification.txt&quot; with the default specification and empty TODO list" style="rounded=1;whiteSpace=wrap;html=1;arcSize=40;fontColor=#000000;fillColor=#ffffc0;strokeColor=#ff0000;" parent="1" vertex="1">
          <mxGeometry x="641" y="313" width="140" height="61" as="geometry" />
        </mxCell>
        <mxCell id="q85WHNdkSG2JO1IWw7Qk-21" value="" style="edgeStyle=orthogonalEdgeStyle;html=1;verticalAlign=bottom;endArrow=open;endSize=8;strokeColor=#ff0000;rounded=0;entryX=0.5;entryY=0;entryDx=0;entryDy=0;" parent="1" source="q85WHNdkSG2JO1IWw7Qk-20" target="RxqG92QvU8h1ItRZsoUS-4" edge="1">
          <mxGeometry relative="1" as="geometry">
            <mxPoint x="711" y="397.9999999999999" as="targetPoint" />
          </mxGeometry>
        </mxCell>
        <mxCell id="q85WHNdkSG2JO1IWw7Qk-23" value="" style="edgeStyle=orthogonalEdgeStyle;html=1;verticalAlign=bottom;endArrow=open;endSize=8;strokeColor=#ff0000;rounded=0;exitX=0.5;exitY=1;exitDx=0;exitDy=0;entryX=0.5;entryY=0;entryDx=0;entryDy=0;" parent="1" source="RxqG92QvU8h1ItRZsoUS-4" target="q85WHNdkSG2JO1IWw7Qk-24" edge="1">
          <mxGeometry relative="1" as="geometry">
            <mxPoint x="700.66" y="514" as="targetPoint" />
            <mxPoint x="711" y="447.9999999999999" as="sourcePoint" />
          </mxGeometry>
        </mxCell>
        <mxCell id="q85WHNdkSG2JO1IWw7Qk-24" value="Initiaise the application with the default &quot;specification.txt&quot;" style="rounded=1;whiteSpace=wrap;html=1;arcSize=40;fontColor=#000000;fillColor=#ffffc0;strokeColor=#ff0000;" parent="1" vertex="1">
          <mxGeometry x="641" y="494" width="140" height="46" as="geometry" />
        </mxCell>
        <mxCell id="q85WHNdkSG2JO1IWw7Qk-25" value="" style="edgeStyle=orthogonalEdgeStyle;html=1;verticalAlign=bottom;endArrow=open;endSize=8;strokeColor=#ff0000;rounded=0;entryX=0.5;entryY=0;entryDx=0;entryDy=0;" parent="1" source="q85WHNdkSG2JO1IWw7Qk-24" target="q85WHNdkSG2JO1IWw7Qk-17" edge="1">
          <mxGeometry relative="1" as="geometry">
            <mxPoint x="701" y="629" as="targetPoint" />
          </mxGeometry>
        </mxCell>
        <mxCell id="q85WHNdkSG2JO1IWw7Qk-27" value="" style="edgeStyle=orthogonalEdgeStyle;html=1;verticalAlign=bottom;endArrow=open;endSize=8;strokeColor=#ff0000;rounded=0;entryX=0.5;entryY=0;entryDx=0;entryDy=0;exitX=0.5;exitY=1;exitDx=0;exitDy=0;" parent="1" source="RsbU5nmADzKlUmwW7Z2p-7" target="q85WHNdkSG2JO1IWw7Qk-28" edge="1">
          <mxGeometry relative="1" as="geometry">
            <mxPoint x="576" y="964" as="targetPoint" />
            <mxPoint x="576" y="834" as="sourcePoint" />
          </mxGeometry>
        </mxCell>
        <mxCell id="q85WHNdkSG2JO1IWw7Qk-28" value="" style="rhombus;whiteSpace=wrap;html=1;fontColor=#000000;fillColor=#ffffc0;strokeColor=#ff0000;" parent="1" vertex="1">
          <mxGeometry x="536" y="874" width="80" height="40" as="geometry" />
        </mxCell>
        <mxCell id="q85WHNdkSG2JO1IWw7Qk-30" value="valid" style="edgeStyle=orthogonalEdgeStyle;html=1;align=left;verticalAlign=top;endArrow=open;endSize=8;strokeColor=#ff0000;rounded=0;entryX=0.5;entryY=0;entryDx=0;entryDy=0;" parent="1" source="q85WHNdkSG2JO1IWw7Qk-28" target="q85WHNdkSG2JO1IWw7Qk-35" edge="1">
          <mxGeometry x="-1" relative="1" as="geometry">
            <mxPoint x="576" y="1064" as="targetPoint" />
          </mxGeometry>
        </mxCell>
        <mxCell id="q85WHNdkSG2JO1IWw7Qk-35" value="System responds to the changes" style="rounded=1;whiteSpace=wrap;html=1;arcSize=40;fontColor=#000000;fillColor=#ffffc0;strokeColor=#ff0000;" parent="1" vertex="1">
          <mxGeometry x="516" y="984" width="120" height="40" as="geometry" />
        </mxCell>
        <mxCell id="q85WHNdkSG2JO1IWw7Qk-36" value="" style="edgeStyle=orthogonalEdgeStyle;html=1;verticalAlign=bottom;endArrow=open;endSize=8;strokeColor=#ff0000;rounded=0;entryX=0.5;entryY=0;entryDx=0;entryDy=0;" parent="1" source="q85WHNdkSG2JO1IWw7Qk-35" target="q85WHNdkSG2JO1IWw7Qk-37" edge="1">
          <mxGeometry relative="1" as="geometry">
            <mxPoint x="581" y="1174" as="targetPoint" />
          </mxGeometry>
        </mxCell>
        <mxCell id="q85WHNdkSG2JO1IWw7Qk-37" value="System writes the changes to the &quot;specification.txt&quot;" style="rounded=1;whiteSpace=wrap;html=1;arcSize=40;fontColor=#000000;fillColor=#ffffc0;strokeColor=#ff0000;" parent="1" vertex="1">
          <mxGeometry x="516" y="1064" width="120" height="50" as="geometry" />
        </mxCell>
        <mxCell id="q85WHNdkSG2JO1IWw7Qk-38" value="" style="edgeStyle=orthogonalEdgeStyle;html=1;verticalAlign=bottom;endArrow=open;endSize=8;strokeColor=#ff0000;rounded=0;entryX=0.5;entryY=1;entryDx=0;entryDy=0;" parent="1" source="q85WHNdkSG2JO1IWw7Qk-37" target="RxqG92QvU8h1ItRZsoUS-6" edge="1">
          <mxGeometry relative="1" as="geometry">
            <mxPoint x="331" y="1024" as="targetPoint" />
          </mxGeometry>
        </mxCell>
        <mxCell id="q85WHNdkSG2JO1IWw7Qk-39" value="System displays a error message about the invalid option" style="rounded=1;whiteSpace=wrap;html=1;arcSize=40;fontColor=#000000;fillColor=#ffffc0;strokeColor=#ff0000;" parent="1" vertex="1">
          <mxGeometry x="367" y="869" width="140" height="50" as="geometry" />
        </mxCell>
        <mxCell id="q85WHNdkSG2JO1IWw7Qk-40" value="" style="edgeStyle=orthogonalEdgeStyle;html=1;verticalAlign=bottom;endArrow=open;endSize=8;strokeColor=#ff0000;rounded=0;entryX=1;entryY=0.5;entryDx=0;entryDy=0;" parent="1" source="q85WHNdkSG2JO1IWw7Qk-39" target="RxqG92QvU8h1ItRZsoUS-6" edge="1">
          <mxGeometry relative="1" as="geometry">
            <mxPoint x="411" y="784" as="targetPoint" />
          </mxGeometry>
        </mxCell>
        <mxCell id="RxqG92QvU8h1ItRZsoUS-4" value="Default &quot;specification.txt&quot;" style="whiteSpace=wrap;html=1;fillColor=#ffffc0;strokeColor=#ff0000;fontColor=#000000;" parent="1" vertex="1">
          <mxGeometry x="661" y="404" width="100" height="50" as="geometry" />
        </mxCell>
        <mxCell id="RxqG92QvU8h1ItRZsoUS-6" value="" style="rhombus;whiteSpace=wrap;html=1;fontColor=#000000;fillColor=#ffffc0;strokeColor=#ff0000;" parent="1" vertex="1">
          <mxGeometry x="287" y="694" width="80" height="40" as="geometry" />
        </mxCell>
        <mxCell id="RxqG92QvU8h1ItRZsoUS-7" value="invalid" style="edgeStyle=orthogonalEdgeStyle;html=1;align=left;verticalAlign=bottom;endArrow=open;endSize=8;strokeColor=#ff0000;rounded=0;exitX=0;exitY=0.5;exitDx=0;exitDy=0;entryX=1;entryY=0.5;entryDx=0;entryDy=0;" parent="1" source="q85WHNdkSG2JO1IWw7Qk-28" target="q85WHNdkSG2JO1IWw7Qk-39" edge="1">
          <mxGeometry x="0.7931" relative="1" as="geometry">
            <mxPoint x="771" y="934" as="targetPoint" />
            <mxPoint x="671" y="934" as="sourcePoint" />
            <mxPoint as="offset" />
          </mxGeometry>
        </mxCell>
        <mxCell id="RxqG92QvU8h1ItRZsoUS-8" value="" style="edgeStyle=orthogonalEdgeStyle;html=1;align=left;verticalAlign=top;endArrow=open;endSize=8;strokeColor=#ff0000;rounded=0;exitX=0.5;exitY=0;exitDx=0;exitDy=0;entryX=0;entryY=0.5;entryDx=0;entryDy=0;" parent="1" source="RxqG92QvU8h1ItRZsoUS-6" target="RxqG92QvU8h1ItRZsoUS-9" edge="1">
          <mxGeometry x="-1" relative="1" as="geometry">
            <mxPoint x="327" y="624" as="targetPoint" />
            <mxPoint x="267.0344827586207" y="573.9827586206895" as="sourcePoint" />
          </mxGeometry>
        </mxCell>
        <mxCell id="RxqG92QvU8h1ItRZsoUS-9" value="" style="rhombus;whiteSpace=wrap;html=1;fontColor=#000000;fillColor=#ffffc0;strokeColor=#ff0000;" parent="1" vertex="1">
          <mxGeometry x="456.5" y="134" width="80" height="40" as="geometry" />
        </mxCell>
        <mxCell id="RxqG92QvU8h1ItRZsoUS-15" value="" style="edgeStyle=orthogonalEdgeStyle;html=1;align=left;verticalAlign=top;endArrow=open;endSize=8;strokeColor=#ff0000;rounded=0;exitX=0.5;exitY=1;exitDx=0;exitDy=0;entryX=0.5;entryY=0;entryDx=0;entryDy=0;" parent="1" source="RxqG92QvU8h1ItRZsoUS-9" target="q85WHNdkSG2JO1IWw7Qk-5" edge="1">
          <mxGeometry x="-1" relative="1" as="geometry">
            <mxPoint x="401" y="244.02" as="targetPoint" />
            <mxPoint x="401.0344827586208" y="184.00275862068966" as="sourcePoint" />
          </mxGeometry>
        </mxCell>
        <mxCell id="RxqG92QvU8h1ItRZsoUS-18" value="" style="ellipse;html=1;shape=startState;fillColor=#000000;strokeColor=#ff0000;" parent="1" vertex="1">
          <mxGeometry x="481.5" y="55" width="30" height="30" as="geometry" />
        </mxCell>
        <mxCell id="RxqG92QvU8h1ItRZsoUS-19" value="" style="edgeStyle=orthogonalEdgeStyle;html=1;verticalAlign=bottom;endArrow=open;endSize=8;strokeColor=#ff0000;rounded=0;entryX=0.5;entryY=0;entryDx=0;entryDy=0;" parent="1" source="RxqG92QvU8h1ItRZsoUS-18" target="RxqG92QvU8h1ItRZsoUS-9" edge="1">
          <mxGeometry relative="1" as="geometry">
            <mxPoint x="495.5" y="134" as="targetPoint" />
          </mxGeometry>
        </mxCell>
        <mxCell id="RxqG92QvU8h1ItRZsoUS-22" value="exit" style="edgeStyle=orthogonalEdgeStyle;html=1;align=left;verticalAlign=bottom;endArrow=open;endSize=8;strokeColor=#ff0000;rounded=0;exitX=1;exitY=0.5;exitDx=0;exitDy=0;entryX=0;entryY=0.5;entryDx=0;entryDy=0;" parent="1" source="q85WHNdkSG2JO1IWw7Qk-28" target="RxqG92QvU8h1ItRZsoUS-24" edge="1">
          <mxGeometry x="-1" relative="1" as="geometry">
            <mxPoint x="736.09" y="893.61" as="targetPoint" />
            <mxPoint x="636.0030434782612" y="893.5665217391305" as="sourcePoint" />
          </mxGeometry>
        </mxCell>
        <mxCell id="RxqG92QvU8h1ItRZsoUS-23" value="" style="edgeStyle=orthogonalEdgeStyle;html=1;align=left;verticalAlign=top;endArrow=open;endSize=8;strokeColor=#ff0000;rounded=0;exitX=1;exitY=0.5;exitDx=0;exitDy=0;entryX=0;entryY=0.5;entryDx=0;entryDy=0;" parent="1" source="RxqG92QvU8h1ItRZsoUS-29" target="RxqG92QvU8h1ItRZsoUS-30" edge="1">
          <mxGeometry x="-1" relative="1" as="geometry">
            <mxPoint x="1491" y="864.5" as="targetPoint" />
            <mxPoint x="1491.0000000000002" y="764.4999999999998" as="sourcePoint" />
          </mxGeometry>
        </mxCell>
        <mxCell id="RxqG92QvU8h1ItRZsoUS-24" value="System saves the current changes and writes to the &quot;specification.txt&quot;" style="rounded=1;whiteSpace=wrap;html=1;arcSize=40;fontColor=#000000;fillColor=#ffffc0;strokeColor=#ff0000;" parent="1" vertex="1">
          <mxGeometry x="857" y="867" width="150" height="55" as="geometry" />
        </mxCell>
        <mxCell id="RxqG92QvU8h1ItRZsoUS-25" value="" style="edgeStyle=orthogonalEdgeStyle;html=1;verticalAlign=bottom;endArrow=open;endSize=8;strokeColor=#ff0000;rounded=0;exitX=1;exitY=0.5;exitDx=0;exitDy=0;" parent="1" source="RxqG92QvU8h1ItRZsoUS-24" target="RxqG92QvU8h1ItRZsoUS-29" edge="1">
          <mxGeometry relative="1" as="geometry">
            <mxPoint x="981" y="892" as="targetPoint" />
          </mxGeometry>
        </mxCell>
        <mxCell id="RxqG92QvU8h1ItRZsoUS-29" value="Program terminates" style="rounded=1;whiteSpace=wrap;html=1;arcSize=40;fontColor=#000000;fillColor=#ffffc0;strokeColor=#ff0000;" parent="1" vertex="1">
          <mxGeometry x="1297" y="874.5" width="120" height="40" as="geometry" />
        </mxCell>
        <mxCell id="RxqG92QvU8h1ItRZsoUS-30" value="" style="ellipse;html=1;shape=endState;fillColor=#000000;strokeColor=#ff0000;" parent="1" vertex="1">
          <mxGeometry x="1458" y="879.5" width="30" height="30" as="geometry" />
        </mxCell>
        <mxCell id="Jxkfy5DvKybf_iYGKnuJ-1" value="Program processing" style="shape=umlFrame;whiteSpace=wrap;html=1;pointerEvents=0;width=80;height=36;" parent="1" vertex="1">
          <mxGeometry x="247" y="54" width="1030" height="1076" as="geometry" />
        </mxCell>
        <mxCell id="RsbU5nmADzKlUmwW7Z2p-1" value="" style="rhombus;whiteSpace=wrap;html=1;fontColor=#000000;fillColor=#ffffc0;strokeColor=#ff0000;" parent="1" vertex="1">
          <mxGeometry x="727" y="719" width="80" height="40" as="geometry" />
        </mxCell>
        <mxCell id="RsbU5nmADzKlUmwW7Z2p-2" value="user pressed Ctrl + z" style="edgeStyle=orthogonalEdgeStyle;html=1;align=left;verticalAlign=bottom;endArrow=open;endSize=8;strokeColor=#ff0000;rounded=0;entryX=0.5;entryY=1;entryDx=0;entryDy=0;" parent="1" source="RsbU5nmADzKlUmwW7Z2p-1" target="RsbU5nmADzKlUmwW7Z2p-9" edge="1">
          <mxGeometry x="-1" relative="1" as="geometry">
            <mxPoint x="907" y="720" as="targetPoint" />
          </mxGeometry>
        </mxCell>
        <mxCell id="RsbU5nmADzKlUmwW7Z2p-6" value="user entered an option" style="edgeStyle=orthogonalEdgeStyle;html=1;align=left;verticalAlign=bottom;endArrow=open;endSize=8;strokeColor=#ff0000;rounded=0;exitX=0;exitY=0.5;exitDx=0;exitDy=0;entryX=1;entryY=0.5;entryDx=0;entryDy=0;" parent="1" source="RsbU5nmADzKlUmwW7Z2p-1" target="RsbU5nmADzKlUmwW7Z2p-7" edge="1">
          <mxGeometry y="-39" relative="1" as="geometry">
            <mxPoint x="751" y="799" as="targetPoint" />
            <mxPoint x="651" y="799" as="sourcePoint" />
            <mxPoint as="offset" />
          </mxGeometry>
        </mxCell>
        <mxCell id="RsbU5nmADzKlUmwW7Z2p-7" value="Option string" style="whiteSpace=wrap;html=1;fillColor=#ffffc0;strokeColor=#ff0000;fontColor=#000000;" parent="1" vertex="1">
          <mxGeometry x="526" y="796" width="100" height="50" as="geometry" />
        </mxCell>
        <mxCell id="RsbU5nmADzKlUmwW7Z2p-9" value="" style="rhombus;whiteSpace=wrap;html=1;fontColor=#000000;fillColor=#ffffc0;strokeColor=#ff0000;" parent="1" vertex="1">
          <mxGeometry x="827" y="560" width="80" height="40" as="geometry" />
        </mxCell>
        <mxCell id="RsbU5nmADzKlUmwW7Z2p-10" value="nothing to undo" style="edgeStyle=orthogonalEdgeStyle;html=1;align=left;verticalAlign=bottom;endArrow=open;endSize=8;strokeColor=#ff0000;rounded=0;entryX=0.5;entryY=1;entryDx=0;entryDy=0;" parent="1" source="RsbU5nmADzKlUmwW7Z2p-9" target="RsbU5nmADzKlUmwW7Z2p-15" edge="1">
          <mxGeometry x="-1" relative="1" as="geometry">
            <mxPoint x="1007" y="580" as="targetPoint" />
          </mxGeometry>
        </mxCell>
        <mxCell id="RsbU5nmADzKlUmwW7Z2p-12" value="something to undo" style="edgeStyle=orthogonalEdgeStyle;html=1;align=left;verticalAlign=top;endArrow=open;endSize=8;strokeColor=#ff0000;rounded=0;exitX=0.5;exitY=0;exitDx=0;exitDy=0;entryX=0.5;entryY=1;entryDx=0;entryDy=0;" parent="1" source="RsbU5nmADzKlUmwW7Z2p-9" target="RsbU5nmADzKlUmwW7Z2p-13" edge="1">
          <mxGeometry x="0.1429" y="40" relative="1" as="geometry">
            <mxPoint x="867" y="660" as="targetPoint" />
            <mxPoint x="867" y="600" as="sourcePoint" />
            <mxPoint as="offset" />
          </mxGeometry>
        </mxCell>
        <mxCell id="RsbU5nmADzKlUmwW7Z2p-13" value="Undo the last done operation" style="rounded=1;whiteSpace=wrap;html=1;arcSize=40;fontColor=#000000;fillColor=#ffffc0;strokeColor=#ff0000;" parent="1" vertex="1">
          <mxGeometry x="807" y="380" width="120" height="40" as="geometry" />
        </mxCell>
        <mxCell id="RsbU5nmADzKlUmwW7Z2p-14" value="" style="edgeStyle=orthogonalEdgeStyle;html=1;verticalAlign=bottom;endArrow=open;endSize=8;strokeColor=#ff0000;rounded=0;exitX=0.5;exitY=0;exitDx=0;exitDy=0;entryX=0.5;entryY=1;entryDx=0;entryDy=0;" parent="1" source="RsbU5nmADzKlUmwW7Z2p-13" target="RsbU5nmADzKlUmwW7Z2p-19" edge="1">
          <mxGeometry relative="1" as="geometry">
            <mxPoint x="927" y="463" as="targetPoint" />
          </mxGeometry>
        </mxCell>
        <mxCell id="RsbU5nmADzKlUmwW7Z2p-15" value="Display an error message about nothing to undo" style="rounded=1;whiteSpace=wrap;html=1;arcSize=40;fontColor=#000000;fillColor=#ffffc0;strokeColor=#ff0000;" parent="1" vertex="1">
          <mxGeometry x="997" y="454" width="130" height="50" as="geometry" />
        </mxCell>
        <mxCell id="RsbU5nmADzKlUmwW7Z2p-16" value="" style="edgeStyle=orthogonalEdgeStyle;html=1;verticalAlign=bottom;endArrow=open;endSize=8;strokeColor=#ff0000;rounded=0;entryX=1;entryY=0.5;entryDx=0;entryDy=0;" parent="1" source="RsbU5nmADzKlUmwW7Z2p-15" target="RsbU5nmADzKlUmwW7Z2p-19" edge="1">
          <mxGeometry relative="1" as="geometry">
            <mxPoint x="1097" y="620" as="targetPoint" />
          </mxGeometry>
        </mxCell>
        <mxCell id="RsbU5nmADzKlUmwW7Z2p-19" value="" style="rhombus;whiteSpace=wrap;html=1;fontColor=#000000;fillColor=#ffffc0;strokeColor=#ff0000;" parent="1" vertex="1">
          <mxGeometry x="827" y="223" width="80" height="40" as="geometry" />
        </mxCell>
        <mxCell id="RsbU5nmADzKlUmwW7Z2p-22" value="" style="rhombus;whiteSpace=wrap;html=1;fontColor=#000000;fillColor=#ffffc0;strokeColor=#ff0000;" parent="1" vertex="1">
          <mxGeometry x="653" y="134" width="80" height="40" as="geometry" />
        </mxCell>
        <mxCell id="RsbU5nmADzKlUmwW7Z2p-25" value="" style="edgeStyle=orthogonalEdgeStyle;html=1;verticalAlign=bottom;endArrow=open;endSize=8;strokeColor=#ff0000;rounded=0;entryX=1;entryY=0.5;entryDx=0;entryDy=0;exitX=0;exitY=0.5;exitDx=0;exitDy=0;" parent="1" source="RsbU5nmADzKlUmwW7Z2p-22" target="RxqG92QvU8h1ItRZsoUS-9" edge="1">
          <mxGeometry relative="1" as="geometry">
            <mxPoint x="540" y="144" as="targetPoint" />
            <mxPoint x="540" y="95" as="sourcePoint" />
          </mxGeometry>
        </mxCell>
        <mxCell id="RsbU5nmADzKlUmwW7Z2p-27" value="" style="edgeStyle=orthogonalEdgeStyle;html=1;verticalAlign=bottom;endArrow=open;endSize=8;strokeColor=#ff0000;rounded=0;entryX=0.5;entryY=1;entryDx=0;entryDy=0;exitX=0;exitY=0.5;exitDx=0;exitDy=0;" parent="1" source="RsbU5nmADzKlUmwW7Z2p-19" target="RsbU5nmADzKlUmwW7Z2p-22" edge="1">
          <mxGeometry relative="1" as="geometry">
            <mxPoint x="517" y="154" as="targetPoint" />
            <mxPoint x="517" y="105" as="sourcePoint" />
          </mxGeometry>
        </mxCell>
        <mxCell id="RsbU5nmADzKlUmwW7Z2p-28" value="" style="rhombus;whiteSpace=wrap;html=1;fontColor=#000000;fillColor=#ffffc0;strokeColor=#ff0000;" parent="1" vertex="1">
          <mxGeometry x="850" y="810" width="80" height="40" as="geometry" />
        </mxCell>
        <mxCell id="RsbU5nmADzKlUmwW7Z2p-29" value="nothing to redo" style="edgeStyle=orthogonalEdgeStyle;html=1;align=left;verticalAlign=bottom;endArrow=open;endSize=8;strokeColor=#ff0000;rounded=0;entryX=0.5;entryY=1;entryDx=0;entryDy=0;" parent="1" source="RsbU5nmADzKlUmwW7Z2p-28" target="RsbU5nmADzKlUmwW7Z2p-37" edge="1">
          <mxGeometry x="-1" relative="1" as="geometry">
            <mxPoint x="1117" y="780" as="targetPoint" />
          </mxGeometry>
        </mxCell>
        <mxCell id="RsbU5nmADzKlUmwW7Z2p-30" value="something to redo" style="edgeStyle=orthogonalEdgeStyle;html=1;align=left;verticalAlign=top;endArrow=open;endSize=8;strokeColor=#ff0000;rounded=0;exitX=0.5;exitY=0;exitDx=0;exitDy=0;entryX=0.5;entryY=1;entryDx=0;entryDy=0;" parent="1" source="RsbU5nmADzKlUmwW7Z2p-28" target="RsbU5nmADzKlUmwW7Z2p-32" edge="1">
          <mxGeometry x="-0.3132" relative="1" as="geometry">
            <mxPoint x="977" y="860" as="targetPoint" />
            <mxPoint as="offset" />
          </mxGeometry>
        </mxCell>
        <mxCell id="RsbU5nmADzKlUmwW7Z2p-31" value="user pressed Ctrl + y" style="edgeStyle=orthogonalEdgeStyle;html=1;align=left;verticalAlign=top;endArrow=open;endSize=8;strokeColor=#ff0000;rounded=0;exitX=0.5;exitY=1;exitDx=0;exitDy=0;entryX=0;entryY=0.5;entryDx=0;entryDy=0;" parent="1" source="RsbU5nmADzKlUmwW7Z2p-1" target="RsbU5nmADzKlUmwW7Z2p-28" edge="1">
          <mxGeometry x="-1" relative="1" as="geometry">
            <mxPoint x="780.53" y="821" as="targetPoint" />
            <mxPoint x="780.53" y="780" as="sourcePoint" />
          </mxGeometry>
        </mxCell>
        <mxCell id="RsbU5nmADzKlUmwW7Z2p-32" value="Redo the last operation" style="rounded=1;whiteSpace=wrap;html=1;arcSize=40;fontColor=#000000;fillColor=#ffffc0;strokeColor=#ff0000;" parent="1" vertex="1">
          <mxGeometry x="947" y="696" width="120" height="40" as="geometry" />
        </mxCell>
        <mxCell id="RsbU5nmADzKlUmwW7Z2p-33" value="" style="edgeStyle=orthogonalEdgeStyle;html=1;verticalAlign=bottom;endArrow=open;endSize=8;strokeColor=#ff0000;rounded=0;entryX=0;entryY=0.5;entryDx=0;entryDy=0;exitX=0.5;exitY=0;exitDx=0;exitDy=0;" parent="1" source="RsbU5nmADzKlUmwW7Z2p-32" target="RsbU5nmADzKlUmwW7Z2p-34" edge="1">
          <mxGeometry relative="1" as="geometry">
            <mxPoint x="1007" y="796" as="targetPoint" />
          </mxGeometry>
        </mxCell>
        <mxCell id="RsbU5nmADzKlUmwW7Z2p-34" value="" style="rhombus;whiteSpace=wrap;html=1;fontColor=#000000;fillColor=#ffffc0;strokeColor=#ff0000;" parent="1" vertex="1">
          <mxGeometry x="1134" y="574" width="80" height="40" as="geometry" />
        </mxCell>
        <mxCell id="RsbU5nmADzKlUmwW7Z2p-37" value="Display an error message about nothing to redo" style="rounded=1;whiteSpace=wrap;html=1;arcSize=40;fontColor=#000000;fillColor=#ffffc0;strokeColor=#ff0000;" parent="1" vertex="1">
          <mxGeometry x="1113" y="730" width="120" height="40" as="geometry" />
        </mxCell>
        <mxCell id="RsbU5nmADzKlUmwW7Z2p-38" value="" style="edgeStyle=orthogonalEdgeStyle;html=1;verticalAlign=bottom;endArrow=open;endSize=8;strokeColor=#ff0000;rounded=0;exitX=0.5;exitY=0;exitDx=0;exitDy=0;entryX=0.5;entryY=1;entryDx=0;entryDy=0;" parent="1" source="RsbU5nmADzKlUmwW7Z2p-37" target="RsbU5nmADzKlUmwW7Z2p-34" edge="1">
          <mxGeometry relative="1" as="geometry">
            <mxPoint x="1154" y="830" as="targetPoint" />
          </mxGeometry>
        </mxCell>
        <mxCell id="RsbU5nmADzKlUmwW7Z2p-39" value="" style="edgeStyle=orthogonalEdgeStyle;html=1;verticalAlign=bottom;endArrow=open;endSize=8;strokeColor=#ff0000;rounded=0;entryX=1;entryY=0.5;entryDx=0;entryDy=0;exitX=0.5;exitY=0;exitDx=0;exitDy=0;" parent="1" source="RsbU5nmADzKlUmwW7Z2p-34" target="RsbU5nmADzKlUmwW7Z2p-22" edge="1">
          <mxGeometry relative="1" as="geometry">
            <mxPoint x="507" y="144" as="targetPoint" />
            <mxPoint x="507" y="95" as="sourcePoint" />
          </mxGeometry>
        </mxCell>
      </root>
    </mxGraphModel>
  </diagram>
  <diagram id="rqVH_hxqFKZmHKqRT3-P" name="Class Diagram">
    <mxGraphModel dx="1098" dy="988" grid="1" gridSize="10" guides="1" tooltips="1" connect="1" arrows="1" fold="1" page="1" pageScale="1" pageWidth="1654" pageHeight="1169" math="0" shadow="0">
      <root>
        <mxCell id="0" />
        <mxCell id="1" parent="0" />
        <mxCell id="8VQKRcyNWnS5BnXwv2xh-1" value="main.cpp" style="swimlane;fontStyle=0;childLayout=stackLayout;horizontal=1;startSize=26;fillColor=none;horizontalStack=0;resizeParent=1;resizeParentMax=0;resizeLast=0;collapsible=1;marginBottom=0;whiteSpace=wrap;html=1;" parent="1" vertex="1">
          <mxGeometry x="367.5" y="559" width="140" height="52" as="geometry" />
        </mxCell>
        <mxCell id="8VQKRcyNWnS5BnXwv2xh-2" value="main" style="text;strokeColor=none;fillColor=none;align=left;verticalAlign=top;spacingLeft=4;spacingRight=4;overflow=hidden;rotatable=0;points=[[0,0.5],[1,0.5]];portConstraint=eastwest;whiteSpace=wrap;html=1;" parent="8VQKRcyNWnS5BnXwv2xh-1" vertex="1">
          <mxGeometry y="26" width="140" height="26" as="geometry" />
        </mxCell>
        <mxCell id="8VQKRcyNWnS5BnXwv2xh-5" value="ToDo (Struct)" style="swimlane;fontStyle=0;childLayout=stackLayout;horizontal=1;startSize=26;fillColor=none;horizontalStack=0;resizeParent=1;resizeParentMax=0;resizeLast=0;collapsible=1;marginBottom=0;whiteSpace=wrap;html=1;" parent="1" vertex="1">
          <mxGeometry x="1050" y="790" width="140" height="78" as="geometry" />
        </mxCell>
        <mxCell id="8VQKRcyNWnS5BnXwv2xh-6" value="+ msg: string" style="text;strokeColor=none;fillColor=none;align=left;verticalAlign=top;spacingLeft=4;spacingRight=4;overflow=hidden;rotatable=0;points=[[0,0.5],[1,0.5]];portConstraint=eastwest;whiteSpace=wrap;html=1;" parent="8VQKRcyNWnS5BnXwv2xh-5" vertex="1">
          <mxGeometry y="26" width="140" height="26" as="geometry" />
        </mxCell>
        <mxCell id="8VQKRcyNWnS5BnXwv2xh-7" value="+ done: bool" style="text;strokeColor=none;fillColor=none;align=left;verticalAlign=top;spacingLeft=4;spacingRight=4;overflow=hidden;rotatable=0;points=[[0,0.5],[1,0.5]];portConstraint=eastwest;whiteSpace=wrap;html=1;" parent="8VQKRcyNWnS5BnXwv2xh-5" vertex="1">
          <mxGeometry y="52" width="140" height="26" as="geometry" />
        </mxCell>
        <mxCell id="fk8c-U3no2IcFU2LCVP1-9" value="WriteToFile" style="swimlane;fontStyle=0;childLayout=stackLayout;horizontal=1;startSize=26;fillColor=none;horizontalStack=0;resizeParent=1;resizeParentMax=0;resizeLast=0;collapsible=1;marginBottom=0;whiteSpace=wrap;html=1;" parent="1" vertex="1">
          <mxGeometry x="767" y="764" width="140" height="130" as="geometry" />
        </mxCell>
        <mxCell id="fk8c-U3no2IcFU2LCVP1-10" value="AddToDo" style="text;strokeColor=none;fillColor=none;align=left;verticalAlign=top;spacingLeft=4;spacingRight=4;overflow=hidden;rotatable=0;points=[[0,0.5],[1,0.5]];portConstraint=eastwest;whiteSpace=wrap;html=1;" parent="fk8c-U3no2IcFU2LCVP1-9" vertex="1">
          <mxGeometry y="26" width="140" height="26" as="geometry" />
        </mxCell>
        <mxCell id="fk8c-U3no2IcFU2LCVP1-11" value="DeleteToDo" style="text;strokeColor=none;fillColor=none;align=left;verticalAlign=top;spacingLeft=4;spacingRight=4;overflow=hidden;rotatable=0;points=[[0,0.5],[1,0.5]];portConstraint=eastwest;whiteSpace=wrap;html=1;" parent="fk8c-U3no2IcFU2LCVP1-9" vertex="1">
          <mxGeometry y="52" width="140" height="26" as="geometry" />
        </mxCell>
        <mxCell id="fk8c-U3no2IcFU2LCVP1-12" value="MarkAsDone" style="text;strokeColor=none;fillColor=none;align=left;verticalAlign=top;spacingLeft=4;spacingRight=4;overflow=hidden;rotatable=0;points=[[0,0.5],[1,0.5]];portConstraint=eastwest;whiteSpace=wrap;html=1;" parent="fk8c-U3no2IcFU2LCVP1-9" vertex="1">
          <mxGeometry y="78" width="140" height="26" as="geometry" />
        </mxCell>
        <mxCell id="fk8c-U3no2IcFU2LCVP1-17" value="ModifyToDoMsg" style="text;strokeColor=none;fillColor=none;align=left;verticalAlign=top;spacingLeft=4;spacingRight=4;overflow=hidden;rotatable=0;points=[[0,0.5],[1,0.5]];portConstraint=eastwest;whiteSpace=wrap;html=1;" parent="fk8c-U3no2IcFU2LCVP1-9" vertex="1">
          <mxGeometry y="104" width="140" height="26" as="geometry" />
        </mxCell>
        <mxCell id="fk8c-U3no2IcFU2LCVP1-13" value="ReadFromFile" style="swimlane;fontStyle=0;childLayout=stackLayout;horizontal=1;startSize=26;fillColor=none;horizontalStack=0;resizeParent=1;resizeParentMax=0;resizeLast=0;collapsible=1;marginBottom=0;whiteSpace=wrap;html=1;" parent="1" vertex="1">
          <mxGeometry x="1050" y="546" width="140" height="78" as="geometry" />
        </mxCell>
        <mxCell id="fk8c-U3no2IcFU2LCVP1-14" value="GetToDos" style="text;strokeColor=none;fillColor=none;align=left;verticalAlign=top;spacingLeft=4;spacingRight=4;overflow=hidden;rotatable=0;points=[[0,0.5],[1,0.5]];portConstraint=eastwest;whiteSpace=wrap;html=1;" parent="fk8c-U3no2IcFU2LCVP1-13" vertex="1">
          <mxGeometry y="26" width="140" height="26" as="geometry" />
        </mxCell>
        <mxCell id="fk8c-U3no2IcFU2LCVP1-15" value="FileToString" style="text;strokeColor=none;fillColor=none;align=left;verticalAlign=top;spacingLeft=4;spacingRight=4;overflow=hidden;rotatable=0;points=[[0,0.5],[1,0.5]];portConstraint=eastwest;whiteSpace=wrap;html=1;" parent="fk8c-U3no2IcFU2LCVP1-13" vertex="1">
          <mxGeometry y="52" width="140" height="26" as="geometry" />
        </mxCell>
        <mxCell id="fk8c-U3no2IcFU2LCVP1-23" value="" style="endArrow=diamondThin;endFill=1;endSize=24;html=1;rounded=0;exitX=0.5;exitY=0;exitDx=0;exitDy=0;" parent="1" source="8VQKRcyNWnS5BnXwv2xh-5" target="fk8c-U3no2IcFU2LCVP1-13" edge="1">
          <mxGeometry width="160" relative="1" as="geometry">
            <mxPoint x="855" y="800" as="sourcePoint" />
            <mxPoint x="1015" y="800" as="targetPoint" />
          </mxGeometry>
        </mxCell>
        <mxCell id="fk8c-U3no2IcFU2LCVP1-25" value="" style="endArrow=diamondThin;endFill=1;endSize=24;html=1;rounded=0;exitX=0;exitY=0.5;exitDx=0;exitDy=0;" parent="1" source="8VQKRcyNWnS5BnXwv2xh-6" target="fk8c-U3no2IcFU2LCVP1-9" edge="1">
          <mxGeometry width="160" relative="1" as="geometry">
            <mxPoint x="705" y="850" as="sourcePoint" />
            <mxPoint x="865" y="850" as="targetPoint" />
          </mxGeometry>
        </mxCell>
        <mxCell id="2QC9BF1jrvJwTWViUXzR-1" value="UndoRedo" style="swimlane;fontStyle=1;align=center;verticalAlign=top;childLayout=stackLayout;horizontal=1;startSize=26;horizontalStack=0;resizeParent=1;resizeParentMax=0;resizeLast=0;collapsible=1;marginBottom=0;whiteSpace=wrap;html=1;" parent="1" vertex="1">
          <mxGeometry x="172.5" y="250" width="195" height="216" as="geometry" />
        </mxCell>
        <mxCell id="2QC9BF1jrvJwTWViUXzR-2" value="- undo_stack : stack&amp;lt;command&amp;gt;" style="text;strokeColor=none;fillColor=none;align=left;verticalAlign=top;spacingLeft=4;spacingRight=4;overflow=hidden;rotatable=0;points=[[0,0.5],[1,0.5]];portConstraint=eastwest;whiteSpace=wrap;html=1;" parent="2QC9BF1jrvJwTWViUXzR-1" vertex="1">
          <mxGeometry y="26" width="195" height="26" as="geometry" />
        </mxCell>
        <mxCell id="2QC9BF1jrvJwTWViUXzR-5" value="- redo_stack : stack&amp;lt;command&amp;gt;" style="text;strokeColor=none;fillColor=none;align=left;verticalAlign=top;spacingLeft=4;spacingRight=4;overflow=hidden;rotatable=0;points=[[0,0.5],[1,0.5]];portConstraint=eastwest;whiteSpace=wrap;html=1;" parent="2QC9BF1jrvJwTWViUXzR-1" vertex="1">
          <mxGeometry y="52" width="195" height="26" as="geometry" />
        </mxCell>
        <mxCell id="2QC9BF1jrvJwTWViUXzR-3" value="" style="line;strokeWidth=1;fillColor=none;align=left;verticalAlign=middle;spacingTop=-1;spacingLeft=3;spacingRight=3;rotatable=0;labelPosition=right;points=[];portConstraint=eastwest;strokeColor=inherit;" parent="2QC9BF1jrvJwTWViUXzR-1" vertex="1">
          <mxGeometry y="78" width="195" height="8" as="geometry" />
        </mxCell>
        <mxCell id="2QC9BF1jrvJwTWViUXzR-4" value="+ Did" style="text;strokeColor=none;fillColor=none;align=left;verticalAlign=top;spacingLeft=4;spacingRight=4;overflow=hidden;rotatable=0;points=[[0,0.5],[1,0.5]];portConstraint=eastwest;whiteSpace=wrap;html=1;" parent="2QC9BF1jrvJwTWViUXzR-1" vertex="1">
          <mxGeometry y="86" width="195" height="26" as="geometry" />
        </mxCell>
        <mxCell id="2QC9BF1jrvJwTWViUXzR-6" value="+ Undo&lt;span style=&quot;color: rgba(0, 0, 0, 0); font-family: monospace; font-size: 0px; text-wrap: nowrap;&quot;&gt;%3CmxGraphModel%3E%3Croot%3E%3CmxCell%20id%3D%220%22%2F%3E%3CmxCell%20id%3D%221%22%20parent%3D%220%22%2F%3E%3CmxCell%20id%3D%222%22%20value%3D%22%2B%20Did%22%20style%3D%22text%3BstrokeColor%3Dnone%3BfillColor%3Dnone%3Balign%3Dleft%3BverticalAlign%3Dtop%3BspacingLeft%3D4%3BspacingRight%3D4%3Boverflow%3Dhidden%3Brotatable%3D0%3Bpoints%3D%5B%5B0%2C0.5%5D%2C%5B1%2C0.5%5D%5D%3BportConstraint%3Deastwest%3BwhiteSpace%3Dwrap%3Bhtml%3D1%3B%22%20vertex%3D%221%22%20parent%3D%221%22%3E%3CmxGeometry%20x%3D%22455%22%20y%3D%22226%22%20width%3D%22195%22%20height%3D%2226%22%20as%3D%22geometry%22%2F%3E%3C%2FmxCell%3E%3C%2Froot%3E%3C%2FmxGraphModel%3E&lt;/span&gt;" style="text;strokeColor=none;fillColor=none;align=left;verticalAlign=top;spacingLeft=4;spacingRight=4;overflow=hidden;rotatable=0;points=[[0,0.5],[1,0.5]];portConstraint=eastwest;whiteSpace=wrap;html=1;" parent="2QC9BF1jrvJwTWViUXzR-1" vertex="1">
          <mxGeometry y="112" width="195" height="26" as="geometry" />
        </mxCell>
        <mxCell id="2QC9BF1jrvJwTWViUXzR-7" value="+ Redo" style="text;strokeColor=none;fillColor=none;align=left;verticalAlign=top;spacingLeft=4;spacingRight=4;overflow=hidden;rotatable=0;points=[[0,0.5],[1,0.5]];portConstraint=eastwest;whiteSpace=wrap;html=1;" parent="2QC9BF1jrvJwTWViUXzR-1" vertex="1">
          <mxGeometry y="138" width="195" height="26" as="geometry" />
        </mxCell>
        <mxCell id="2QC9BF1jrvJwTWViUXzR-12" value="- CanUndo&lt;span style=&quot;color: rgba(0, 0, 0, 0); font-family: monospace; font-size: 0px; text-wrap: nowrap;&quot;&gt;%3CmxGraphModel%3E%3Croot%3E%3CmxCell%20id%3D%220%22%2F%3E%3CmxCell%20id%3D%221%22%20parent%3D%220%22%2F%3E%3CmxCell%20id%3D%222%22%20value%3D%22%2B%20Redo%22%20style%3D%22text%3BstrokeColor%3Dnone%3BfillColor%3Dnone%3Balign%3Dleft%3BverticalAlign%3Dtop%3BspacingLeft%3D4%3BspacingRight%3D4%3Boverflow%3Dhidden%3Brotatable%3D0%3Bpoints%3D%5B%5B0%2C0.5%5D%2C%5B1%2C0.5%5D%5D%3BportConstraint%3Deastwest%3BwhiteSpace%3Dwrap%3Bhtml%3D1%3B%22%20vertex%3D%221%22%20parent%3D%221%22%3E%3CmxGeometry%20x%3D%22470%22%20y%3D%22228%22%20width%3D%22195%22%20height%3D%2226%22%20as%3D%22geometry%22%2F%3E%3C%2FmxCell%3E%3C%2Froot%3E%3C%2FmxGraphModel%3E&lt;/span&gt;" style="text;strokeColor=none;fillColor=none;align=left;verticalAlign=top;spacingLeft=4;spacingRight=4;overflow=hidden;rotatable=0;points=[[0,0.5],[1,0.5]];portConstraint=eastwest;whiteSpace=wrap;html=1;" parent="2QC9BF1jrvJwTWViUXzR-1" vertex="1">
          <mxGeometry y="164" width="195" height="26" as="geometry" />
        </mxCell>
        <mxCell id="2QC9BF1jrvJwTWViUXzR-13" value="- CanRedo" style="text;strokeColor=none;fillColor=none;align=left;verticalAlign=top;spacingLeft=4;spacingRight=4;overflow=hidden;rotatable=0;points=[[0,0.5],[1,0.5]];portConstraint=eastwest;whiteSpace=wrap;html=1;" parent="2QC9BF1jrvJwTWViUXzR-1" vertex="1">
          <mxGeometry y="190" width="195" height="26" as="geometry" />
        </mxCell>
        <mxCell id="2QC9BF1jrvJwTWViUXzR-8" value="MainFrame" style="swimlane;fontStyle=1;align=center;verticalAlign=top;childLayout=stackLayout;horizontal=1;startSize=26;horizontalStack=0;resizeParent=1;resizeParentMax=0;resizeLast=0;collapsible=1;marginBottom=0;whiteSpace=wrap;html=1;" parent="1" vertex="1">
          <mxGeometry x="740" y="477" width="175" height="216" as="geometry" />
        </mxCell>
        <mxCell id="2QC9BF1jrvJwTWViUXzR-9" value="- to_do_s : vector&amp;lt;ToDo&amp;gt;" style="text;strokeColor=none;fillColor=none;align=left;verticalAlign=top;spacingLeft=4;spacingRight=4;overflow=hidden;rotatable=0;points=[[0,0.5],[1,0.5]];portConstraint=eastwest;whiteSpace=wrap;html=1;" parent="2QC9BF1jrvJwTWViUXzR-8" vertex="1">
          <mxGeometry y="26" width="175" height="26" as="geometry" />
        </mxCell>
        <mxCell id="2QC9BF1jrvJwTWViUXzR-23" value="- msg_ptr : unique_ptr&amp;lt;string&amp;gt;" style="text;strokeColor=none;fillColor=none;align=left;verticalAlign=top;spacingLeft=4;spacingRight=4;overflow=hidden;rotatable=0;points=[[0,0.5],[1,0.5]];portConstraint=eastwest;whiteSpace=wrap;html=1;" parent="2QC9BF1jrvJwTWViUXzR-8" vertex="1">
          <mxGeometry y="52" width="175" height="26" as="geometry" />
        </mxCell>
        <mxCell id="2QC9BF1jrvJwTWViUXzR-24" value="- exit : bool&lt;span style=&quot;color: rgba(0, 0, 0, 0); font-family: monospace; font-size: 0px; text-wrap: nowrap;&quot;&gt;%3CmxGraphModel%3E%3Croot%3E%3CmxCell%20id%3D%220%22%2F%3E%3CmxCell%20id%3D%221%22%20parent%3D%220%22%2F%3E%3CmxCell%20id%3D%222%22%20value%3D%22-%20to_do_s%20%3A%20vector%26amp%3Blt%3BToDo%26amp%3Bgt%3B%22%20style%3D%22text%3BstrokeColor%3Dnone%3BfillColor%3Dnone%3Balign%3Dleft%3BverticalAlign%3Dtop%3BspacingLeft%3D4%3BspacingRight%3D4%3Boverflow%3Dhidden%3Brotatable%3D0%3Bpoints%3D%5B%5B0%2C0.5%5D%2C%5B1%2C0.5%5D%5D%3BportConstraint%3Deastwest%3BwhiteSpace%3Dwrap%3Bhtml%3D1%3B%22%20vertex%3D%221%22%20parent%3D%221%22%3E%3CmxGeometry%20x%3D%22235%22%20y%3D%22486%22%20width%3D%22160%22%20height%3D%2226%22%20as%3D%22geometry%22%2F%3E%3C%2FmxCell%3E%3C%2Froot%3E%3C%2FmxGraphModel%3E&lt;/span&gt;" style="text;strokeColor=none;fillColor=none;align=left;verticalAlign=top;spacingLeft=4;spacingRight=4;overflow=hidden;rotatable=0;points=[[0,0.5],[1,0.5]];portConstraint=eastwest;whiteSpace=wrap;html=1;" parent="2QC9BF1jrvJwTWViUXzR-8" vertex="1">
          <mxGeometry y="78" width="175" height="26" as="geometry" />
        </mxCell>
        <mxCell id="2QC9BF1jrvJwTWViUXzR-10" value="" style="line;strokeWidth=1;fillColor=none;align=left;verticalAlign=middle;spacingTop=-1;spacingLeft=3;spacingRight=3;rotatable=0;labelPosition=right;points=[];portConstraint=eastwest;strokeColor=inherit;" parent="2QC9BF1jrvJwTWViUXzR-8" vertex="1">
          <mxGeometry y="104" width="175" height="8" as="geometry" />
        </mxCell>
        <mxCell id="2QC9BF1jrvJwTWViUXzR-11" value="+ StartApp" style="text;strokeColor=none;fillColor=none;align=left;verticalAlign=top;spacingLeft=4;spacingRight=4;overflow=hidden;rotatable=0;points=[[0,0.5],[1,0.5]];portConstraint=eastwest;whiteSpace=wrap;html=1;" parent="2QC9BF1jrvJwTWViUXzR-8" vertex="1">
          <mxGeometry y="112" width="175" height="26" as="geometry" />
        </mxCell>
        <mxCell id="2QC9BF1jrvJwTWViUXzR-26" value="- PrintToDos" style="text;strokeColor=none;fillColor=none;align=left;verticalAlign=top;spacingLeft=4;spacingRight=4;overflow=hidden;rotatable=0;points=[[0,0.5],[1,0.5]];portConstraint=eastwest;whiteSpace=wrap;html=1;" parent="2QC9BF1jrvJwTWViUXzR-8" vertex="1">
          <mxGeometry y="138" width="175" height="26" as="geometry" />
        </mxCell>
        <mxCell id="2QC9BF1jrvJwTWViUXzR-27" value="- PrintOptions" style="text;strokeColor=none;fillColor=none;align=left;verticalAlign=top;spacingLeft=4;spacingRight=4;overflow=hidden;rotatable=0;points=[[0,0.5],[1,0.5]];portConstraint=eastwest;whiteSpace=wrap;html=1;" parent="2QC9BF1jrvJwTWViUXzR-8" vertex="1">
          <mxGeometry y="164" width="175" height="26" as="geometry" />
        </mxCell>
        <mxCell id="2QC9BF1jrvJwTWViUXzR-28" value="- HandleUserInput" style="text;strokeColor=none;fillColor=none;align=left;verticalAlign=top;spacingLeft=4;spacingRight=4;overflow=hidden;rotatable=0;points=[[0,0.5],[1,0.5]];portConstraint=eastwest;whiteSpace=wrap;html=1;" parent="2QC9BF1jrvJwTWViUXzR-8" vertex="1">
          <mxGeometry y="190" width="175" height="26" as="geometry" />
        </mxCell>
        <mxCell id="2QC9BF1jrvJwTWViUXzR-14" value="&lt;i&gt;Command&lt;/i&gt;" style="swimlane;fontStyle=1;align=center;verticalAlign=top;childLayout=stackLayout;horizontal=1;startSize=26;horizontalStack=0;resizeParent=1;resizeParentMax=0;resizeLast=0;collapsible=1;marginBottom=0;whiteSpace=wrap;html=1;" parent="1" vertex="1">
          <mxGeometry x="747" y="60" width="160" height="138" as="geometry" />
        </mxCell>
        <mxCell id="2QC9BF1jrvJwTWViUXzR-15" value="- executed : bool" style="text;strokeColor=none;fillColor=none;align=left;verticalAlign=top;spacingLeft=4;spacingRight=4;overflow=hidden;rotatable=0;points=[[0,0.5],[1,0.5]];portConstraint=eastwest;whiteSpace=wrap;html=1;" parent="2QC9BF1jrvJwTWViUXzR-14" vertex="1">
          <mxGeometry y="26" width="160" height="26" as="geometry" />
        </mxCell>
        <mxCell id="2QC9BF1jrvJwTWViUXzR-16" value="" style="line;strokeWidth=1;fillColor=none;align=left;verticalAlign=middle;spacingTop=-1;spacingLeft=3;spacingRight=3;rotatable=0;labelPosition=right;points=[];portConstraint=eastwest;strokeColor=inherit;" parent="2QC9BF1jrvJwTWViUXzR-14" vertex="1">
          <mxGeometry y="52" width="160" height="8" as="geometry" />
        </mxCell>
        <mxCell id="2QC9BF1jrvJwTWViUXzR-17" value="+ Execute" style="text;strokeColor=none;fillColor=none;align=left;verticalAlign=top;spacingLeft=4;spacingRight=4;overflow=hidden;rotatable=0;points=[[0,0.5],[1,0.5]];portConstraint=eastwest;whiteSpace=wrap;html=1;" parent="2QC9BF1jrvJwTWViUXzR-14" vertex="1">
          <mxGeometry y="60" width="160" height="26" as="geometry" />
        </mxCell>
        <mxCell id="2QC9BF1jrvJwTWViUXzR-21" value="+ Revert" style="text;strokeColor=none;fillColor=none;align=left;verticalAlign=top;spacingLeft=4;spacingRight=4;overflow=hidden;rotatable=0;points=[[0,0.5],[1,0.5]];portConstraint=eastwest;whiteSpace=wrap;html=1;" parent="2QC9BF1jrvJwTWViUXzR-14" vertex="1">
          <mxGeometry y="86" width="160" height="26" as="geometry" />
        </mxCell>
        <mxCell id="2QC9BF1jrvJwTWViUXzR-22" value="+ GetExecuted" style="text;strokeColor=none;fillColor=none;align=left;verticalAlign=top;spacingLeft=4;spacingRight=4;overflow=hidden;rotatable=0;points=[[0,0.5],[1,0.5]];portConstraint=eastwest;whiteSpace=wrap;html=1;" parent="2QC9BF1jrvJwTWViUXzR-14" vertex="1">
          <mxGeometry y="112" width="160" height="26" as="geometry" />
        </mxCell>
        <mxCell id="2QC9BF1jrvJwTWViUXzR-29" value="AddToDoCommand" style="swimlane;fontStyle=1;align=center;verticalAlign=top;childLayout=stackLayout;horizontal=1;startSize=26;horizontalStack=0;resizeParent=1;resizeParentMax=0;resizeLast=0;collapsible=1;marginBottom=0;whiteSpace=wrap;html=1;" parent="1" vertex="1">
          <mxGeometry x="440" y="290" width="160" height="112" as="geometry" />
        </mxCell>
        <mxCell id="2QC9BF1jrvJwTWViUXzR-30" value="- user_input : string" style="text;strokeColor=none;fillColor=none;align=left;verticalAlign=top;spacingLeft=4;spacingRight=4;overflow=hidden;rotatable=0;points=[[0,0.5],[1,0.5]];portConstraint=eastwest;whiteSpace=wrap;html=1;" parent="2QC9BF1jrvJwTWViUXzR-29" vertex="1">
          <mxGeometry y="26" width="160" height="26" as="geometry" />
        </mxCell>
        <mxCell id="2QC9BF1jrvJwTWViUXzR-31" value="" style="line;strokeWidth=1;fillColor=none;align=left;verticalAlign=middle;spacingTop=-1;spacingLeft=3;spacingRight=3;rotatable=0;labelPosition=right;points=[];portConstraint=eastwest;strokeColor=inherit;" parent="2QC9BF1jrvJwTWViUXzR-29" vertex="1">
          <mxGeometry y="52" width="160" height="8" as="geometry" />
        </mxCell>
        <mxCell id="2QC9BF1jrvJwTWViUXzR-32" value="+ Execute" style="text;strokeColor=none;fillColor=none;align=left;verticalAlign=top;spacingLeft=4;spacingRight=4;overflow=hidden;rotatable=0;points=[[0,0.5],[1,0.5]];portConstraint=eastwest;whiteSpace=wrap;html=1;" parent="2QC9BF1jrvJwTWViUXzR-29" vertex="1">
          <mxGeometry y="60" width="160" height="26" as="geometry" />
        </mxCell>
        <mxCell id="2QC9BF1jrvJwTWViUXzR-35" value="+ Revert" style="text;strokeColor=none;fillColor=none;align=left;verticalAlign=top;spacingLeft=4;spacingRight=4;overflow=hidden;rotatable=0;points=[[0,0.5],[1,0.5]];portConstraint=eastwest;whiteSpace=wrap;html=1;" parent="2QC9BF1jrvJwTWViUXzR-29" vertex="1">
          <mxGeometry y="86" width="160" height="26" as="geometry" />
        </mxCell>
        <mxCell id="2QC9BF1jrvJwTWViUXzR-36" value="DeleteToDoCommand" style="swimlane;fontStyle=1;align=center;verticalAlign=top;childLayout=stackLayout;horizontal=1;startSize=26;horizontalStack=0;resizeParent=1;resizeParentMax=0;resizeLast=0;collapsible=1;marginBottom=0;whiteSpace=wrap;html=1;" parent="1" vertex="1">
          <mxGeometry x="670" y="290" width="190" height="138" as="geometry" />
        </mxCell>
        <mxCell id="2QC9BF1jrvJwTWViUXzR-37" value="- chosen_numbers : vector&amp;lt;int&amp;gt;" style="text;strokeColor=none;fillColor=none;align=left;verticalAlign=top;spacingLeft=4;spacingRight=4;overflow=hidden;rotatable=0;points=[[0,0.5],[1,0.5]];portConstraint=eastwest;whiteSpace=wrap;html=1;" parent="2QC9BF1jrvJwTWViUXzR-36" vertex="1">
          <mxGeometry y="26" width="190" height="26" as="geometry" />
        </mxCell>
        <mxCell id="Y-gtljd8Q0rcoC9nFPvH-1" value="- deleted_todos : map&amp;lt;int, string&amp;gt;" style="text;strokeColor=none;fillColor=none;align=left;verticalAlign=top;spacingLeft=4;spacingRight=4;overflow=hidden;rotatable=0;points=[[0,0.5],[1,0.5]];portConstraint=eastwest;whiteSpace=wrap;html=1;" vertex="1" parent="2QC9BF1jrvJwTWViUXzR-36">
          <mxGeometry y="52" width="190" height="26" as="geometry" />
        </mxCell>
        <mxCell id="2QC9BF1jrvJwTWViUXzR-38" value="" style="line;strokeWidth=1;fillColor=none;align=left;verticalAlign=middle;spacingTop=-1;spacingLeft=3;spacingRight=3;rotatable=0;labelPosition=right;points=[];portConstraint=eastwest;strokeColor=inherit;" parent="2QC9BF1jrvJwTWViUXzR-36" vertex="1">
          <mxGeometry y="78" width="190" height="8" as="geometry" />
        </mxCell>
        <mxCell id="2QC9BF1jrvJwTWViUXzR-39" value="+ Execute" style="text;strokeColor=none;fillColor=none;align=left;verticalAlign=top;spacingLeft=4;spacingRight=4;overflow=hidden;rotatable=0;points=[[0,0.5],[1,0.5]];portConstraint=eastwest;whiteSpace=wrap;html=1;" parent="2QC9BF1jrvJwTWViUXzR-36" vertex="1">
          <mxGeometry y="86" width="190" height="26" as="geometry" />
        </mxCell>
        <mxCell id="2QC9BF1jrvJwTWViUXzR-40" value="+ Revert" style="text;strokeColor=none;fillColor=none;align=left;verticalAlign=top;spacingLeft=4;spacingRight=4;overflow=hidden;rotatable=0;points=[[0,0.5],[1,0.5]];portConstraint=eastwest;whiteSpace=wrap;html=1;" parent="2QC9BF1jrvJwTWViUXzR-36" vertex="1">
          <mxGeometry y="112" width="190" height="26" as="geometry" />
        </mxCell>
        <mxCell id="2QC9BF1jrvJwTWViUXzR-45" value="MarkCommand" style="swimlane;fontStyle=1;align=center;verticalAlign=top;childLayout=stackLayout;horizontal=1;startSize=26;horizontalStack=0;resizeParent=1;resizeParentMax=0;resizeLast=0;collapsible=1;marginBottom=0;whiteSpace=wrap;html=1;" parent="1" vertex="1">
          <mxGeometry x="920" y="290" width="160" height="112" as="geometry" />
        </mxCell>
        <mxCell id="2QC9BF1jrvJwTWViUXzR-46" value="- ..." style="text;strokeColor=none;fillColor=none;align=left;verticalAlign=top;spacingLeft=4;spacingRight=4;overflow=hidden;rotatable=0;points=[[0,0.5],[1,0.5]];portConstraint=eastwest;whiteSpace=wrap;html=1;" parent="2QC9BF1jrvJwTWViUXzR-45" vertex="1">
          <mxGeometry y="26" width="160" height="26" as="geometry" />
        </mxCell>
        <mxCell id="2QC9BF1jrvJwTWViUXzR-47" value="" style="line;strokeWidth=1;fillColor=none;align=left;verticalAlign=middle;spacingTop=-1;spacingLeft=3;spacingRight=3;rotatable=0;labelPosition=right;points=[];portConstraint=eastwest;strokeColor=inherit;" parent="2QC9BF1jrvJwTWViUXzR-45" vertex="1">
          <mxGeometry y="52" width="160" height="8" as="geometry" />
        </mxCell>
        <mxCell id="2QC9BF1jrvJwTWViUXzR-48" value="+ Execute" style="text;strokeColor=none;fillColor=none;align=left;verticalAlign=top;spacingLeft=4;spacingRight=4;overflow=hidden;rotatable=0;points=[[0,0.5],[1,0.5]];portConstraint=eastwest;whiteSpace=wrap;html=1;" parent="2QC9BF1jrvJwTWViUXzR-45" vertex="1">
          <mxGeometry y="60" width="160" height="26" as="geometry" />
        </mxCell>
        <mxCell id="2QC9BF1jrvJwTWViUXzR-49" value="+ Revert" style="text;strokeColor=none;fillColor=none;align=left;verticalAlign=top;spacingLeft=4;spacingRight=4;overflow=hidden;rotatable=0;points=[[0,0.5],[1,0.5]];portConstraint=eastwest;whiteSpace=wrap;html=1;" parent="2QC9BF1jrvJwTWViUXzR-45" vertex="1">
          <mxGeometry y="86" width="160" height="26" as="geometry" />
        </mxCell>
        <mxCell id="2QC9BF1jrvJwTWViUXzR-51" value="ModifyCommand" style="swimlane;fontStyle=1;align=center;verticalAlign=top;childLayout=stackLayout;horizontal=1;startSize=26;horizontalStack=0;resizeParent=1;resizeParentMax=0;resizeLast=0;collapsible=1;marginBottom=0;whiteSpace=wrap;html=1;" parent="1" vertex="1">
          <mxGeometry x="1140" y="290" width="160" height="112" as="geometry" />
        </mxCell>
        <mxCell id="2QC9BF1jrvJwTWViUXzR-52" value="- ..." style="text;strokeColor=none;fillColor=none;align=left;verticalAlign=top;spacingLeft=4;spacingRight=4;overflow=hidden;rotatable=0;points=[[0,0.5],[1,0.5]];portConstraint=eastwest;whiteSpace=wrap;html=1;" parent="2QC9BF1jrvJwTWViUXzR-51" vertex="1">
          <mxGeometry y="26" width="160" height="26" as="geometry" />
        </mxCell>
        <mxCell id="2QC9BF1jrvJwTWViUXzR-53" value="" style="line;strokeWidth=1;fillColor=none;align=left;verticalAlign=middle;spacingTop=-1;spacingLeft=3;spacingRight=3;rotatable=0;labelPosition=right;points=[];portConstraint=eastwest;strokeColor=inherit;" parent="2QC9BF1jrvJwTWViUXzR-51" vertex="1">
          <mxGeometry y="52" width="160" height="8" as="geometry" />
        </mxCell>
        <mxCell id="2QC9BF1jrvJwTWViUXzR-54" value="+ Execute" style="text;strokeColor=none;fillColor=none;align=left;verticalAlign=top;spacingLeft=4;spacingRight=4;overflow=hidden;rotatable=0;points=[[0,0.5],[1,0.5]];portConstraint=eastwest;whiteSpace=wrap;html=1;" parent="2QC9BF1jrvJwTWViUXzR-51" vertex="1">
          <mxGeometry y="60" width="160" height="26" as="geometry" />
        </mxCell>
        <mxCell id="2QC9BF1jrvJwTWViUXzR-55" value="+ Revert" style="text;strokeColor=none;fillColor=none;align=left;verticalAlign=top;spacingLeft=4;spacingRight=4;overflow=hidden;rotatable=0;points=[[0,0.5],[1,0.5]];portConstraint=eastwest;whiteSpace=wrap;html=1;" parent="2QC9BF1jrvJwTWViUXzR-51" vertex="1">
          <mxGeometry y="86" width="160" height="26" as="geometry" />
        </mxCell>
        <mxCell id="2QC9BF1jrvJwTWViUXzR-56" value="" style="endArrow=block;endSize=16;endFill=0;html=1;rounded=0;" parent="1" source="2QC9BF1jrvJwTWViUXzR-29" target="2QC9BF1jrvJwTWViUXzR-14" edge="1">
          <mxGeometry width="160" relative="1" as="geometry">
            <mxPoint x="420" y="477" as="sourcePoint" />
            <mxPoint x="580" y="477" as="targetPoint" />
          </mxGeometry>
        </mxCell>
        <mxCell id="2QC9BF1jrvJwTWViUXzR-57" value="" style="endArrow=block;endSize=16;endFill=0;html=1;rounded=0;" parent="1" source="2QC9BF1jrvJwTWViUXzR-36" target="2QC9BF1jrvJwTWViUXzR-14" edge="1">
          <mxGeometry width="160" relative="1" as="geometry">
            <mxPoint x="420" y="578.29" as="sourcePoint" />
            <mxPoint x="580" y="578.29" as="targetPoint" />
          </mxGeometry>
        </mxCell>
        <mxCell id="2QC9BF1jrvJwTWViUXzR-58" value="" style="endArrow=block;endSize=16;endFill=0;html=1;rounded=0;" parent="1" source="2QC9BF1jrvJwTWViUXzR-45" target="2QC9BF1jrvJwTWViUXzR-14" edge="1">
          <mxGeometry width="160" relative="1" as="geometry">
            <mxPoint x="430" y="588.29" as="sourcePoint" />
            <mxPoint x="590" y="588.29" as="targetPoint" />
          </mxGeometry>
        </mxCell>
        <mxCell id="2QC9BF1jrvJwTWViUXzR-59" value="" style="endArrow=block;endSize=16;endFill=0;html=1;rounded=0;" parent="1" source="2QC9BF1jrvJwTWViUXzR-51" target="2QC9BF1jrvJwTWViUXzR-14" edge="1">
          <mxGeometry width="160" relative="1" as="geometry">
            <mxPoint x="440" y="598.29" as="sourcePoint" />
            <mxPoint x="600" y="598.29" as="targetPoint" />
          </mxGeometry>
        </mxCell>
        <mxCell id="2QC9BF1jrvJwTWViUXzR-61" value="" style="endArrow=block;endFill=1;html=1;edgeStyle=orthogonalEdgeStyle;align=left;verticalAlign=top;rounded=0;" parent="1" source="2QC9BF1jrvJwTWViUXzR-14" target="2QC9BF1jrvJwTWViUXzR-1" edge="1">
          <mxGeometry x="-1" relative="1" as="geometry">
            <mxPoint x="360" y="780" as="sourcePoint" />
            <mxPoint x="520" y="780" as="targetPoint" />
          </mxGeometry>
        </mxCell>
        <mxCell id="2QC9BF1jrvJwTWViUXzR-62" value="*" style="edgeLabel;resizable=0;html=1;align=left;verticalAlign=bottom;" parent="2QC9BF1jrvJwTWViUXzR-61" connectable="0" vertex="1">
          <mxGeometry x="-1" relative="1" as="geometry">
            <mxPoint x="-10" as="offset" />
          </mxGeometry>
        </mxCell>
        <mxCell id="JtFUwP0lRUBtHWdOPBaC-1" value="1" style="edgeLabel;resizable=0;html=1;align=left;verticalAlign=bottom;" parent="1" connectable="0" vertex="1">
          <mxGeometry x="272" y="239.99999999999994" as="geometry" />
        </mxCell>
        <mxCell id="JtFUwP0lRUBtHWdOPBaC-2" value="" style="endArrow=block;endFill=1;html=1;align=left;verticalAlign=top;rounded=0;" parent="1" source="2QC9BF1jrvJwTWViUXzR-29" target="2QC9BF1jrvJwTWViUXzR-8" edge="1">
          <mxGeometry x="-1" relative="1" as="geometry">
            <mxPoint x="470" y="540" as="sourcePoint" />
            <mxPoint x="630" y="540" as="targetPoint" />
          </mxGeometry>
        </mxCell>
        <mxCell id="JtFUwP0lRUBtHWdOPBaC-5" value="" style="endArrow=block;endFill=1;html=1;align=left;verticalAlign=top;rounded=0;" parent="1" source="2QC9BF1jrvJwTWViUXzR-36" target="2QC9BF1jrvJwTWViUXzR-8" edge="1">
          <mxGeometry x="-1" relative="1" as="geometry">
            <mxPoint x="480" y="550" as="sourcePoint" />
            <mxPoint x="640" y="550" as="targetPoint" />
          </mxGeometry>
        </mxCell>
        <mxCell id="JtFUwP0lRUBtHWdOPBaC-6" value="" style="endArrow=block;endFill=1;html=1;align=left;verticalAlign=top;rounded=0;" parent="1" source="2QC9BF1jrvJwTWViUXzR-45" target="2QC9BF1jrvJwTWViUXzR-8" edge="1">
          <mxGeometry x="-1" relative="1" as="geometry">
            <mxPoint x="490" y="560" as="sourcePoint" />
            <mxPoint x="650" y="560" as="targetPoint" />
          </mxGeometry>
        </mxCell>
        <mxCell id="JtFUwP0lRUBtHWdOPBaC-7" value="" style="endArrow=block;endFill=1;html=1;align=left;verticalAlign=top;rounded=0;" parent="1" source="2QC9BF1jrvJwTWViUXzR-51" target="2QC9BF1jrvJwTWViUXzR-8" edge="1">
          <mxGeometry x="-1" relative="1" as="geometry">
            <mxPoint x="500" y="570" as="sourcePoint" />
            <mxPoint x="1010" y="540" as="targetPoint" />
          </mxGeometry>
        </mxCell>
        <mxCell id="JtFUwP0lRUBtHWdOPBaC-8" value="" style="endArrow=block;endFill=1;html=1;align=left;verticalAlign=top;rounded=0;" parent="1" source="fk8c-U3no2IcFU2LCVP1-13" target="2QC9BF1jrvJwTWViUXzR-8" edge="1">
          <mxGeometry x="-1" relative="1" as="geometry">
            <mxPoint x="510" y="580" as="sourcePoint" />
            <mxPoint x="670" y="580" as="targetPoint" />
          </mxGeometry>
        </mxCell>
        <mxCell id="JtFUwP0lRUBtHWdOPBaC-9" value="" style="endArrow=block;endFill=1;html=1;align=left;verticalAlign=top;rounded=0;" parent="1" source="fk8c-U3no2IcFU2LCVP1-9" target="2QC9BF1jrvJwTWViUXzR-8" edge="1">
          <mxGeometry x="-1" relative="1" as="geometry">
            <mxPoint x="520" y="590" as="sourcePoint" />
            <mxPoint x="680" y="590" as="targetPoint" />
          </mxGeometry>
        </mxCell>
        <mxCell id="JtFUwP0lRUBtHWdOPBaC-11" value="" style="endArrow=block;endFill=1;html=1;edgeStyle=orthogonalEdgeStyle;align=left;verticalAlign=top;rounded=0;entryX=0;entryY=0.5;entryDx=0;entryDy=0;exitX=1;exitY=0.5;exitDx=0;exitDy=0;" parent="1" source="2QC9BF1jrvJwTWViUXzR-13" target="2QC9BF1jrvJwTWViUXzR-23" edge="1">
          <mxGeometry x="-1" relative="1" as="geometry">
            <mxPoint x="637" y="540" as="sourcePoint" />
            <mxPoint x="160" y="661" as="targetPoint" />
          </mxGeometry>
        </mxCell>
        <mxCell id="JtFUwP0lRUBtHWdOPBaC-13" value="" style="endArrow=block;endFill=1;html=1;align=left;verticalAlign=top;rounded=0;" parent="1" source="2QC9BF1jrvJwTWViUXzR-8" target="8VQKRcyNWnS5BnXwv2xh-1" edge="1">
          <mxGeometry x="-1" relative="1" as="geometry">
            <mxPoint x="705" y="720" as="sourcePoint" />
            <mxPoint x="570" y="720" as="targetPoint" />
          </mxGeometry>
        </mxCell>
      </root>
    </mxGraphModel>
  </diagram>
</mxfile>
